<?xml version="1.0" standalone="no"?>
<!DOCTYPE svg PUBLIC "-//W3C//DTD SVG 20010904//EN"
 "http://www.w3.org/TR/2001/REC-SVG-20010904/DTD/svg10.dtd">
<svg version="1.0" xmlns="http://www.w3.org/2000/svg"
 width="898.000000pt" height="1280.000000pt" viewBox="0 0 898.000000 1280.000000"
 preserveAspectRatio="xMidYMid meet">
<metadata>
Created by potrace 1.15, written by Peter Selinger 2001-2017
</metadata>
<g transform="translate(0.000000,1280.000000) scale(0.100000,-0.100000)"
fill="#000000" stroke="none">
<path d="M3098 12552 c-31 -20 -392 -535 -420 -600 -13 -30 -23 -85 -29 -175
-6 -72 -16 -138 -22 -146 -28 -34 -627 -525 -674 -552 l-53 -30 -37 29 c-74
58 -152 65 -203 18 -14 -13 -41 -29 -62 -35 -41 -14 -88 -56 -88 -80 0 -9 -14
-24 -30 -33 -16 -9 -37 -34 -46 -55 -9 -21 -22 -51 -29 -68 -24 -54 -26 -72
-10 -116 8 -24 15 -49 15 -55 0 -7 -54 -58 -120 -114 -67 -56 -128 -113 -137
-126 -8 -14 -16 -43 -17 -65 -1 -33 5 -46 27 -65 58 -49 110 -31 262 94 l110
90 25 -22 c14 -13 61 -45 104 -71 74 -46 81 -53 108 -113 23 -50 27 -69 20
-90 -7 -22 -3 -40 23 -92 17 -36 47 -103 65 -150 49 -123 265 -552 361 -715
185 -317 362 -561 502 -691 41 -38 218 -180 393 -316 l320 -247 12 -126 c24
-233 85 -423 185 -568 42 -62 46 -73 54 -154 12 -134 9 -544 -5 -663 -20 -157
-59 -331 -82 -361 -15 -22 -18 -37 -14 -76 4 -32 1 -60 -9 -85 -10 -23 -12
-39 -5 -46 6 -6 3 -34 -7 -77 -75 -327 -104 -808 -70 -1165 9 -85 15 -171 15
-190 0 -143 28 -423 78 -780 53 -368 58 -425 51 -500 -6 -69 -2 -126 22 -305
40 -307 95 -764 110 -925 12 -120 16 -138 37 -159 22 -22 24 -31 20 -86 l-5
-61 55 -20 c64 -22 69 -31 71 -134 1 -61 -1 -67 -34 -102 -18 -21 -39 -38 -44
-38 -18 0 -42 -59 -56 -138 -7 -42 -20 -97 -29 -122 -9 -25 -19 -74 -22 -110
-3 -36 -18 -112 -32 -170 -35 -143 -36 -248 -2 -310 14 -25 37 -51 52 -58 121
-58 366 -75 495 -34 66 21 72 25 85 60 22 63 14 217 -18 324 -27 94 -28 104
-23 263 4 135 -14 215 -62 269 -34 39 -40 53 -48 113 -4 37 -6 99 -3 136 l4
68 54 40 54 40 0 82 c0 45 9 345 20 667 11 321 17 636 14 700 -5 89 2 207 30
515 20 220 38 405 40 410 3 6 5 -11 5 -37 1 -26 17 -222 36 -436 26 -292 33
-407 27 -463 -4 -44 2 -344 15 -739 12 -366 22 -674 22 -686 1 -13 19 -33 51
-55 28 -19 53 -44 57 -57 3 -13 3 -77 1 -141 -5 -115 -6 -118 -40 -163 -47
-61 -60 -132 -57 -311 2 -127 0 -149 -21 -207 -28 -78 -39 -259 -20 -322 14
-50 59 -72 182 -89 104 -14 227 -2 346 36 72 23 80 28 103 67 35 61 33 193 -4
335 -15 56 -27 122 -27 146 0 24 -11 77 -23 118 -13 41 -27 98 -31 128 -10 73
-29 107 -92 164 l-54 49 0 66 c0 89 13 112 73 129 l49 14 -4 65 c-3 57 0 67
19 82 18 15 23 34 33 132 19 195 59 531 101 850 34 261 39 320 34 410 -6 95
-1 146 54 530 35 253 63 483 67 568 5 122 9 144 24 152 16 9 17 14 4 72 -10
48 -12 118 -7 298 3 145 1 298 -6 400 -12 159 -45 482 -57 546 l-6 32 46 -5
c43 -5 49 -3 103 43 95 81 88 77 116 59 l25 -16 154 173 c210 236 395 452 444
518 46 61 218 354 241 408 20 48 9 120 -31 196 -65 123 -479 790 -673 1082
-165 250 -205 289 -366 368 -208 100 -423 181 -539 202 -35 6 -38 9 -38 39 0
18 -6 38 -14 44 -7 6 -16 25 -20 42 -5 25 -10 30 -26 26 -16 -4 -20 0 -20 20
0 17 22 50 69 102 101 112 165 202 217 305 39 76 53 94 85 109 21 10 64 47 97
82 116 124 145 242 89 357 -16 32 -44 70 -62 86 l-35 28 17 129 c8 72 17 131
18 133 1 1 26 -10 56 -25 46 -24 65 -28 139 -28 150 0 234 48 289 164 22 48
26 69 25 146 -1 184 -79 343 -207 426 -51 33 -64 48 -97 114 -70 139 -216 293
-336 352 -41 21 -55 35 -79 82 -17 32 -61 88 -105 132 -221 221 -542 235 -882
40 -39 -23 -70 -35 -75 -30 -15 15 -144 39 -208 39 -88 -1 -142 -16 -213 -62
-234 -152 -312 -434 -198 -714 66 -162 156 -281 266 -353 l55 -36 2 -57 c2
-30 14 -95 28 -142 14 -47 25 -112 26 -144 1 -31 4 -84 8 -117 6 -59 6 -61
-32 -104 -108 -127 -79 -291 78 -440 41 -39 82 -71 90 -71 8 0 31 -33 52 -77
46 -95 124 -205 226 -318 69 -76 77 -90 77 -125 0 -22 -3 -39 -7 -39 -5 1 -13
1 -19 0 -13 -1 -74 -94 -74 -113 0 -10 -32 -24 -102 -43 -57 -15 -112 -27
-124 -26 -48 2 -374 159 -699 338 l-210 115 -55 75 c-30 42 -91 119 -137 172
-185 214 -434 604 -631 989 -28 55 -41 72 -54 68 -31 -7 -30 31 1 96 26 52 31
75 31 134 0 89 -15 172 -36 195 -15 17 -14 20 5 48 12 17 162 157 334 312
l312 281 130 -6 c91 -5 145 -4 179 5 40 10 324 173 542 311 60 39 92 81 100
136 31 204 -201 492 -451 558 -66 18 -85 17 -117 -4z m30 -164 c2 -11 -139
-180 -269 -322 -6 -6 -13 -6 -20 1 -7 7 21 49 97 144 160 200 183 222 192 177z
m150 -64 c4 -28 -344 -362 -361 -345 -8 8 6 29 58 84 202 210 281 287 290 284
5 -2 11 -12 13 -23z m105 -78 c6 -14 -52 -73 -251 -255 -109 -100 -150 -125
-140 -87 3 14 367 356 379 356 4 0 9 -6 12 -14z m84 -121 c1 -5 -1 -15 -5 -21
-13 -19 -370 -304 -381 -304 -33 0 7 43 170 184 165 143 206 170 216 141z m43
-150 c6 -8 9 -18 6 -23 -9 -15 -343 -242 -356 -242 -32 0 10 41 160 154 91 69
168 125 171 126 4 0 12 -7 19 -15z m-2230 -1610 c0 -30 -14 -39 -40 -25 -22
12 -26 40 -8 58 17 17 48 -4 48 -33z m4329 -3139 c127 -148 231 -276 231 -285
0 -9 -7 -27 -17 -40 -13 -19 -14 -27 -4 -43 11 -17 5 -32 -43 -113 -77 -128
-191 -278 -267 -351 -86 -81 -138 -124 -150 -124 -6 0 -18 18 -26 40 -18 44
-76 88 -128 97 l-33 5 -7 117 c-8 126 -2 359 16 569 12 133 12 134 54 196 40
60 105 201 105 228 0 17 3 14 269 -296z"/>
</g>
</svg>
