<?xml version="1.0" standalone="no"?>
<!DOCTYPE svg PUBLIC "-//W3C//DTD SVG 20010904//EN"
 "http://www.w3.org/TR/2001/REC-SVG-20010904/DTD/svg10.dtd">
<svg version="1.0" xmlns="http://www.w3.org/2000/svg"
 width="1280.000000pt" height="1079.000000pt" viewBox="0 0 1280.000000 1079.000000"
 preserveAspectRatio="xMidYMid meet">
<metadata>
Created by potrace 1.15, written by Peter Selinger 2001-2017
</metadata>
<g transform="translate(0.000000,1079.000000) scale(0.100000,-0.100000)"
fill="#000000" stroke="none">
<path d="M9687 10775 c-144 -30 -257 -88 -308 -158 -51 -70 -53 -95 -25 -320
30 -239 59 -529 83 -827 25 -310 25 -1098 0 -1325 -48 -443 -96 -655 -257
-1150 -110 -338 -132 -416 -161 -575 -26 -138 -36 -462 -20 -626 44 -442 500
-3047 890 -5091 11 -56 35 -91 68 -99 50 -13 430 13 773 52 499 57 1099 169
1655 309 390 98 396 100 411 159 12 50 -741 4582 -841 5057 -90 425 -208 673
-546 1144 -198 275 -278 400 -395 617 -313 582 -596 1464 -819 2560 -14 65
-31 131 -39 146 -24 47 -91 100 -148 117 -72 23 -236 28 -321 10z m265 -198
c33 -14 33 -15 61 -153 161 -790 384 -1566 600 -2084 174 -418 332 -699 609
-1087 280 -392 374 -554 453 -782 46 -134 115 -411 115 -463 0 -3 -35 -9 -77
-13 -836 -72 -1599 -197 -2320 -379 -95 -24 -173 -41 -173 -37 0 4 -8 61 -17
126 -12 83 -17 187 -17 335 0 313 22 422 184 915 96 290 146 470 184 660 133
663 135 1475 5 2603 -36 312 -39 292 54 332 109 47 262 59 339 27z m1886
-4829 c6 -35 73 -430 150 -878 203 -1178 445 -2650 438 -2657 -18 -18 -705
-159 -1111 -228 -492 -83 -1415 -208 -1430 -193 -15 15 -439 2403 -575 3238
-23 140 -45 276 -49 302 l-8 48 36 10 c740 197 1545 333 2446 413 100 9 91 14
103 -55z m692 -4131 c34 -214 58 -393 54 -397 -19 -17 -552 -145 -899 -216
-478 -97 -1074 -179 -1455 -199 -63 -3 -125 -8 -137 -11 -19 -3 -23 2 -31 44
-25 117 -143 754 -140 756 2 1 127 17 278 35 745 89 1540 223 2110 355 80 18
148 31 151 27 4 -3 34 -181 69 -394z"/>
<path d="M3929 10480 c-425 -21 -920 -79 -1794 -210 -375 -56 -381 -59 -487
-159 -176 -165 -293 -473 -355 -931 -23 -171 -26 -750 -5 -925 62 -506 199
-884 394 -1091 96 -102 81 -97 499 -164 1824 -289 2240 -288 4039 10 201 33
378 63 393 66 16 3 47 25 69 48 240 246 388 834 388 1541 0 617 -118 1153
-315 1431 -50 70 -115 131 -147 139 -75 16 -919 138 -1213 175 -506 63 -1068
90 -1466 70z"/>
<path d="M1079 6456 c-3 -3 -37 -12 -77 -21 -107 -22 -214 -67 -336 -140 -189
-114 -330 -235 -375 -324 -24 -46 -27 -114 -7 -150 7 -13 186 -200 399 -415
292 -298 383 -396 376 -407 -5 -8 -21 -50 -35 -94 -21 -62 -27 -102 -28 -178
l-1 -98 -25 5 c-159 36 -315 29 -459 -22 -237 -84 -419 -282 -487 -533 -25
-88 -25 -290 -1 -379 24 -92 97 -234 158 -308 93 -113 247 -211 390 -249 l65
-17 -37 -73 c-62 -124 -83 -217 -83 -373 -1 -160 15 -231 80 -367 55 -115 143
-225 236 -296 101 -75 148 -101 258 -138 84 -28 111 -33 230 -37 102 -3 152 0
203 12 38 9 70 16 72 16 3 0 2 -42 -1 -92 -15 -230 68 -455 230 -625 80 -85
154 -139 259 -189 118 -55 184 -69 339 -69 76 0 138 0 138 -1 0 0 -9 -36 -20
-79 -24 -95 -26 -236 -5 -320 79 -305 359 -512 665 -492 267 17 488 186 577
439 30 84 42 243 24 318 -10 42 -9 46 12 59 12 8 56 49 98 91 123 122 182 267
183 445 1 111 -22 206 -72 300 l-37 69 86 86 c137 136 202 290 202 480 0 116
-20 197 -74 310 -58 118 -180 240 -298 298 l-82 40 50 36 c133 98 249 274 297
451 26 96 27 331 1 425 -63 233 -227 434 -444 543 -58 30 -212 77 -249 77
l-24 0 29 53 c151 269 100 611 -123 832 -83 82 -170 135 -281 172 -70 23 -96
27 -210 27 -114 0 -140 -4 -210 -27 -213 -71 -384 -238 -448 -439 -12 -37 -24
-68 -27 -68 -3 0 -18 20 -33 44 -70 112 -230 226 -367 261 -83 22 -226 23
-308 1 -35 -9 -65 -16 -67 -16 -9 0 -66 199 -99 343 -40 171 -78 397 -101 596
-16 138 -21 155 -52 183 -19 18 -65 32 -74 24z"/>
<path d="M5882 5420 c-34 -5 -63 -16 -79 -32 -29 -27 -134 -233 -186 -364
-154 -390 -167 -799 -40 -1169 77 -223 196 -415 363 -588 120 -125 233 -213
365 -287 l92 -51 -62 -242 c-34 -133 -139 -553 -235 -934 -95 -380 -176 -697
-180 -704 -7 -10 -20 -10 -67 0 -308 63 -528 93 -693 94 -106 0 -132 -3 -172
-21 -86 -38 -112 -126 -59 -200 142 -200 1473 -580 2043 -583 132 -1 185 10
227 50 83 77 40 180 -111 265 -123 68 -431 184 -670 252 -38 10 -68 23 -68 28
0 13 471 1880 476 1885 2 2 34 3 71 2 145 -4 352 29 508 80 601 200 1005 719
1090 1401 15 126 21 390 9 421 -8 23 -126 103 -219 149 -217 109 -749 288
-1120 378 -181 44 -575 121 -740 144 -249 35 -422 43 -543 26z m413 -220 c433
-37 1031 -173 1455 -332 157 -58 391 -157 405 -170 11 -10 -50 -5 -260 23
-487 66 -1221 256 -1642 425 -147 59 -178 76 -122 69 19 -2 93 -9 164 -15z
m-316 -144 c491 -249 1723 -556 2234 -556 l108 0 -6 -72 c-19 -197 -61 -383
-127 -550 l-30 -76 -97 -9 c-53 -4 -352 -8 -666 -8 -598 1 -750 8 -1171 56
-174 19 -411 54 -446 65 -21 6 -51 96 -72 217 -44 242 -23 498 62 747 35 103
92 240 100 240 3 0 53 -24 111 -54z m171 -1401 c458 -58 1099 -85 1580 -68
162 6 297 9 299 7 8 -7 -80 -112 -161 -190 -183 -178 -380 -287 -637 -352 -97
-25 -122 -27 -301 -27 -172 0 -205 3 -280 23 -107 29 -266 104 -367 174 -106
72 -275 244 -349 353 -87 130 -85 119 -28 111 27 -4 137 -18 244 -31z m477
-809 c2 -2 -416 -1670 -458 -1828 -10 -38 -22 -45 -47 -29 -10 6 3 69 62 302
41 162 145 575 231 919 86 344 158 631 160 638 4 11 38 9 52 -2z m-1142 -1927
c72 -11 185 -31 251 -44 67 -14 124 -25 127 -25 2 0 8 -16 11 -35 10 -51 42
-69 180 -104 157 -39 188 -40 224 -4 16 16 35 26 47 24 34 -5 355 -111 450
-148 102 -40 124 -54 74 -48 -307 41 -489 75 -774 146 -286 71 -601 170 -778
244 -72 30 -50 29 188 -6z"/>
</g>
</svg>
